<mxfile host="app.diagrams.net" agent="Mozilla/5.0 (Windows NT 10.0; Win64; x64) AppleWebKit/537.36 (KHTML, like Gecko) Chrome/135.0.0.0 Safari/537.36" version="26.1.3">
  <diagram name="第 1 页" id="S6oLFyDK09IUJYJYNc0d">
    <mxGraphModel dx="1195" dy="694" grid="1" gridSize="10" guides="1" tooltips="1" connect="1" arrows="1" fold="1" page="1" pageScale="1" pageWidth="827" pageHeight="1169" math="0" shadow="0">
      <root>
        <mxCell id="0" />
        <mxCell id="1" parent="0" />
        <mxCell id="PF7ncsUSyslSpBPPcUuv-26" value="" style="rounded=0;whiteSpace=wrap;html=1;" parent="1" vertex="1">
          <mxGeometry x="580" y="340" width="180" height="240" as="geometry" />
        </mxCell>
        <mxCell id="PF7ncsUSyslSpBPPcUuv-25" value="" style="rounded=0;whiteSpace=wrap;html=1;" parent="1" vertex="1">
          <mxGeometry x="320" y="340" width="180" height="240" as="geometry" />
        </mxCell>
        <mxCell id="PF7ncsUSyslSpBPPcUuv-24" value="" style="rounded=0;whiteSpace=wrap;html=1;" parent="1" vertex="1">
          <mxGeometry x="120" y="340" width="180" height="240" as="geometry" />
        </mxCell>
        <mxCell id="PF7ncsUSyslSpBPPcUuv-15" style="edgeStyle=orthogonalEdgeStyle;rounded=0;orthogonalLoop=1;jettySize=auto;html=1;" parent="1" source="PF7ncsUSyslSpBPPcUuv-3" target="PF7ncsUSyslSpBPPcUuv-12" edge="1">
          <mxGeometry relative="1" as="geometry" />
        </mxCell>
        <mxCell id="PF7ncsUSyslSpBPPcUuv-3" value="" style="image;sketch=0;aspect=fixed;html=1;points=[];align=center;fontSize=12;image=img/lib/mscae/Cache_Redis_Product.svg;" parent="1" vertex="1">
          <mxGeometry x="190" y="380" width="71.42" height="60" as="geometry" />
        </mxCell>
        <mxCell id="PF7ncsUSyslSpBPPcUuv-16" style="edgeStyle=orthogonalEdgeStyle;rounded=0;orthogonalLoop=1;jettySize=auto;html=1;" parent="1" source="PF7ncsUSyslSpBPPcUuv-10" target="PF7ncsUSyslSpBPPcUuv-13" edge="1">
          <mxGeometry relative="1" as="geometry" />
        </mxCell>
        <mxCell id="PF7ncsUSyslSpBPPcUuv-10" value="" style="image;sketch=0;aspect=fixed;html=1;points=[];align=center;fontSize=12;image=img/lib/mscae/Cache_Redis_Product.svg;" parent="1" vertex="1">
          <mxGeometry x="390" y="380" width="71.42" height="60" as="geometry" />
        </mxCell>
        <mxCell id="PF7ncsUSyslSpBPPcUuv-11" value="" style="image;sketch=0;aspect=fixed;html=1;points=[];align=center;fontSize=12;image=img/lib/mscae/Cache_Redis_Product.svg;" parent="1" vertex="1">
          <mxGeometry x="650" y="380" width="71.42" height="60" as="geometry" />
        </mxCell>
        <mxCell id="PF7ncsUSyslSpBPPcUuv-12" value="" style="image;sketch=0;aspect=fixed;html=1;points=[];align=center;fontSize=12;image=img/lib/mscae/Cache_Redis_Product.svg;" parent="1" vertex="1">
          <mxGeometry x="190" y="495" width="71.42" height="60" as="geometry" />
        </mxCell>
        <mxCell id="PF7ncsUSyslSpBPPcUuv-13" value="" style="image;sketch=0;aspect=fixed;html=1;points=[];align=center;fontSize=12;image=img/lib/mscae/Cache_Redis_Product.svg;" parent="1" vertex="1">
          <mxGeometry x="390" y="495" width="71.42" height="60" as="geometry" />
        </mxCell>
        <mxCell id="PF7ncsUSyslSpBPPcUuv-14" value="" style="image;sketch=0;aspect=fixed;html=1;points=[];align=center;fontSize=12;image=img/lib/mscae/Cache_Redis_Product.svg;" parent="1" vertex="1">
          <mxGeometry x="650" y="495" width="71.42" height="60" as="geometry" />
        </mxCell>
        <mxCell id="PF7ncsUSyslSpBPPcUuv-17" style="edgeStyle=orthogonalEdgeStyle;rounded=0;orthogonalLoop=1;jettySize=auto;html=1;entryX=0.504;entryY=0.05;entryDx=0;entryDy=0;entryPerimeter=0;" parent="1" source="PF7ncsUSyslSpBPPcUuv-11" target="PF7ncsUSyslSpBPPcUuv-14" edge="1">
          <mxGeometry relative="1" as="geometry" />
        </mxCell>
        <mxCell id="PF7ncsUSyslSpBPPcUuv-18" value="Master-A" style="text;html=1;align=center;verticalAlign=middle;whiteSpace=wrap;rounded=0;" parent="1" vertex="1">
          <mxGeometry x="130" y="395" width="60" height="30" as="geometry" />
        </mxCell>
        <mxCell id="PF7ncsUSyslSpBPPcUuv-22" value="Master-B" style="text;html=1;align=center;verticalAlign=middle;whiteSpace=wrap;rounded=0;" parent="1" vertex="1">
          <mxGeometry x="330" y="395" width="60" height="30" as="geometry" />
        </mxCell>
        <mxCell id="PF7ncsUSyslSpBPPcUuv-23" value="Master-N" style="text;html=1;align=center;verticalAlign=middle;whiteSpace=wrap;rounded=0;" parent="1" vertex="1">
          <mxGeometry x="590" y="395" width="60" height="30" as="geometry" />
        </mxCell>
        <mxCell id="PF7ncsUSyslSpBPPcUuv-27" value="Replica-A" style="text;html=1;align=center;verticalAlign=middle;whiteSpace=wrap;rounded=0;" parent="1" vertex="1">
          <mxGeometry x="130" y="510" width="60" height="30" as="geometry" />
        </mxCell>
        <mxCell id="PF7ncsUSyslSpBPPcUuv-28" value="Replica-B" style="text;html=1;align=center;verticalAlign=middle;whiteSpace=wrap;rounded=0;" parent="1" vertex="1">
          <mxGeometry x="340" y="510" width="60" height="30" as="geometry" />
        </mxCell>
        <mxCell id="PF7ncsUSyslSpBPPcUuv-29" value="Replica-N" style="text;html=1;align=center;verticalAlign=middle;whiteSpace=wrap;rounded=0;" parent="1" vertex="1">
          <mxGeometry x="590" y="510" width="60" height="30" as="geometry" />
        </mxCell>
        <mxCell id="PF7ncsUSyslSpBPPcUuv-30" value="Slot 0-m1" style="text;html=1;align=center;verticalAlign=middle;whiteSpace=wrap;rounded=0;" parent="1" vertex="1">
          <mxGeometry x="120" y="310" width="70" height="30" as="geometry" />
        </mxCell>
        <mxCell id="PF7ncsUSyslSpBPPcUuv-31" value="Slot m2-m3" style="text;html=1;align=center;verticalAlign=middle;whiteSpace=wrap;rounded=0;" parent="1" vertex="1">
          <mxGeometry x="320" y="310" width="100" height="30" as="geometry" />
        </mxCell>
        <mxCell id="PF7ncsUSyslSpBPPcUuv-32" value="Slot m-16383" style="text;html=1;align=center;verticalAlign=middle;whiteSpace=wrap;rounded=0;" parent="1" vertex="1">
          <mxGeometry x="640" y="310" width="110" height="30" as="geometry" />
        </mxCell>
        <mxCell id="PF7ncsUSyslSpBPPcUuv-41" style="rounded=0;orthogonalLoop=1;jettySize=auto;html=1;exitX=0.5;exitY=1;exitDx=0;exitDy=0;entryX=0.5;entryY=0;entryDx=0;entryDy=0;dashed=1;" parent="1" source="PF7ncsUSyslSpBPPcUuv-35" target="PF7ncsUSyslSpBPPcUuv-24" edge="1">
          <mxGeometry relative="1" as="geometry" />
        </mxCell>
        <mxCell id="PF7ncsUSyslSpBPPcUuv-42" style="edgeStyle=orthogonalEdgeStyle;rounded=0;orthogonalLoop=1;jettySize=auto;html=1;exitX=0.5;exitY=1;exitDx=0;exitDy=0;dashed=1;" parent="1" source="PF7ncsUSyslSpBPPcUuv-35" edge="1">
          <mxGeometry relative="1" as="geometry">
            <mxPoint x="414" y="340" as="targetPoint" />
          </mxGeometry>
        </mxCell>
        <mxCell id="bwE3h9Y_H4zL6l7523vv-14" style="rounded=0;orthogonalLoop=1;jettySize=auto;html=1;exitX=0.5;exitY=1;exitDx=0;exitDy=0;entryX=0.5;entryY=0;entryDx=0;entryDy=0;dashed=1;" edge="1" parent="1" source="PF7ncsUSyslSpBPPcUuv-35" target="bwE3h9Y_H4zL6l7523vv-9">
          <mxGeometry relative="1" as="geometry" />
        </mxCell>
        <mxCell id="PF7ncsUSyslSpBPPcUuv-35" value="Client" style="rounded=1;whiteSpace=wrap;html=1;fontStyle=1;fillColor=#000000;strokeColor=#FFFFFF;fontColor=#FFFFFF;" parent="1" vertex="1">
          <mxGeometry x="369" y="150" width="89" height="60" as="geometry" />
        </mxCell>
        <mxCell id="bwE3h9Y_H4zL6l7523vv-4" value="Redis Cluster" style="text;html=1;align=center;verticalAlign=middle;whiteSpace=wrap;rounded=0;fontStyle=1;fontSize=14;" vertex="1" parent="1">
          <mxGeometry x="40" y="270" width="114.5" height="30" as="geometry" />
        </mxCell>
        <mxCell id="bwE3h9Y_H4zL6l7523vv-9" value="..." style="rounded=0;whiteSpace=wrap;html=1;" vertex="1" parent="1">
          <mxGeometry x="510" y="340" width="60" height="240" as="geometry" />
        </mxCell>
        <mxCell id="bwE3h9Y_H4zL6l7523vv-15" style="rounded=0;orthogonalLoop=1;jettySize=auto;html=1;exitX=0.5;exitY=1;exitDx=0;exitDy=0;entryX=0.326;entryY=1.144;entryDx=0;entryDy=0;entryPerimeter=0;dashed=1;" edge="1" parent="1" source="PF7ncsUSyslSpBPPcUuv-35" target="PF7ncsUSyslSpBPPcUuv-32">
          <mxGeometry relative="1" as="geometry" />
        </mxCell>
      </root>
    </mxGraphModel>
  </diagram>
</mxfile>
